<?xml version="1.0" standalone="no"?>
<!DOCTYPE svg PUBLIC "-//W3C//DTD SVG 20010904//EN"
 "http://www.w3.org/TR/2001/REC-SVG-20010904/DTD/svg10.dtd">
<svg version="1.0" xmlns="http://www.w3.org/2000/svg"
 width="512.000000pt" height="512.000000pt" viewBox="0 0 512.000000 512.000000"
 preserveAspectRatio="xMidYMid meet">
<metadata>
Created by potrace 1.14, written by Peter Selinger 2001-2017
</metadata>
<g transform="translate(0.000000,512.000000) scale(0.100000,-0.100000)"
fill="#000000" stroke="none">
<path d="M2369 5115 c-2 -2 -38 -6 -79 -10 -41 -4 -82 -8 -90 -10 -8 -1 -37
-5 -65 -10 -27 -4 -59 -9 -70 -12 -11 -2 -31 -6 -45 -9 -97 -20 -320 -86 -385
-114 -11 -5 -54 -23 -95 -41 -193 -81 -420 -218 -591 -355 -79 -64 -278 -257
-343 -333 -48 -56 -179 -236 -221 -303 -83 -131 -234 -449 -250 -526 -2 -9
-12 -42 -23 -72 -29 -83 -70 -268 -91 -410 -20 -135 -26 -500 -11 -615 5 -33
12 -82 15 -110 4 -27 8 -57 10 -65 1 -8 5 -28 8 -45 4 -16 9 -41 12 -54 61
-320 235 -700 457 -998 391 -523 993 -886 1639 -988 263 -42 591 -39 834 6 33
6 72 13 86 15 32 4 240 60 294 79 95 34 115 42 121 48 4 4 13 7 20 7 16 0 255
115 332 160 465 268 852 705 1064 1201 87 203 157 450 183 644 4 28 9 61 11
75 3 14 7 129 9 255 3 215 -1 273 -30 465 -11 77 -62 281 -94 377 -57 170
-211 503 -233 503 -4 0 -8 5 -8 11 0 25 -133 212 -243 344 -75 89 -225 235
-338 330 -202 167 -503 332 -776 425 -288 98 -480 130 -799 135 -117 2 -213 2
-215 0z"/>
</g>
</svg>
